<?xml version="1.0" encoding="utf-8"?>
<!-- Generator: Adobe Illustrator 27.4.1, SVG Export Plug-In . SVG Version: 6.00 Build 0)  -->
<svg version="1.1" id="Layer_1" xmlns="http://www.w3.org/2000/svg" xmlns:xlink="http://www.w3.org/1999/xlink" x="0px" y="0px"
	 viewBox="0 0 72 72" style="enable-background:new 0 0 72 72;" xml:space="preserve">
<style type="text/css">
	.st0{fill:#341C4F;}
	.st1{fill:none;stroke:#FFFFFF;stroke-miterlimit:10;}
	.st2{fill:#FFFFFF;filter:url(#Adobe_OpacityMaskFilter);}
	
		.st3{mask:url(#path-9-inside-1_469_835_00000137134097134887057110000012028778087335350430_);fill:none;stroke:#FFFFFF;stroke-miterlimit:10;}
</style>
<rect class="st0" width="72" height="72"/>
<path class="st1" d="M26.4,25.4h19.1c1,0,1.8,0.8,1.8,1.8v19.9c0,1-0.8,1.8-1.8,1.8H26.4c-1,0-1.8-0.8-1.8-1.8V27.2
	C24.7,26.2,25.5,25.4,26.4,25.4z"/>
<path class="st1" d="M28.5,31.5h2.1c0.2,0,0.4,0.2,0.4,0.4v1.6c0,0.2-0.2,0.4-0.4,0.4h-2.1c-0.2,0-0.4-0.2-0.4-0.4v-1.6
	C28.1,31.7,28.3,31.5,28.5,31.5z"/>
<path class="st1" d="M28.5,37.1h2.1c0.2,0,0.4,0.2,0.4,0.4v1.6c0,0.2-0.2,0.4-0.4,0.4h-2.1c-0.2,0-0.4-0.2-0.4-0.4v-1.6
	C28.1,37.3,28.3,37.1,28.5,37.1z"/>
<path class="st1" d="M28.5,42.7h2.1c0.2,0,0.4,0.2,0.4,0.4v1.6c0,0.2-0.2,0.4-0.4,0.4h-2.1c-0.2,0-0.4-0.2-0.4-0.4v-1.6
	C28.1,42.9,28.3,42.7,28.5,42.7z"/>
<line class="st1" x1="33.6" y1="32.3" x2="43.9" y2="32.3"/>
<line class="st1" x1="33.6" y1="37.9" x2="43.9" y2="37.9"/>
<line class="st1" x1="33.6" y1="43.5" x2="43.9" y2="43.5"/>
<defs>
	<filter id="Adobe_OpacityMaskFilter" filterUnits="userSpaceOnUse" x="30.9" y="21.9" width="10.2" height="4.2">
		<feColorMatrix  type="matrix" values="1 0 0 0 0  0 1 0 0 0  0 0 1 0 0  0 0 0 1 0"/>
	</filter>
</defs>
<mask maskUnits="userSpaceOnUse" x="30.9" y="21.9" width="10.2" height="4.2" id="path-9-inside-1_469_835_00000137134097134887057110000012028778087335350430_">
	<path class="st2" d="M40.6,25.6c0-0.8-0.5-1.7-1.3-2.3c-0.9-0.6-2-0.9-3.2-0.9c-1.2,0-2.4,0.3-3.2,0.9c-0.9,0.6-1.3,1.4-1.3,2.3H36
		H40.6z"/>
</mask>
<path class="st3" d="M40.6,25.6c0-0.8-0.5-1.7-1.3-2.3c-0.9-0.6-2-0.9-3.2-0.9c-1.2,0-2.4,0.3-3.2,0.9c-0.9,0.6-1.3,1.4-1.3,2.3H36
	H40.6z"/>
</svg>
