<?xml version="1.0" encoding="utf-8"?>
<!-- Generator: Adobe Illustrator 27.4.1, SVG Export Plug-In . SVG Version: 6.00 Build 0)  -->
<svg version="1.1" id="Layer_1" xmlns="http://www.w3.org/2000/svg" xmlns:xlink="http://www.w3.org/1999/xlink" x="0px" y="0px"
	 viewBox="0 0 72 72" style="enable-background:new 0 0 72 72;" xml:space="preserve">
<style type="text/css">
	.st0{fill:#341C4F;}
	.st1{fill:none;stroke:#FFFFFF;stroke-width:1.5;}
	.st2{fill:none;stroke:#FFFFFF;}
	.st3{fill:none;stroke:#FFFFFF;stroke-linecap:round;}
	.st4{fill:#FFFFFF;filter:url(#Adobe_OpacityMaskFilter);}
	
		.st5{mask:url(#path-9-inside-1_469_835_00000137134097134887057110000012028778087335350430_);fill:none;stroke:#FFFFFF;stroke-width:2;}
</style>
<rect class="st0" width="72" height="72"/>
<path class="st1" d="M24,22.8h24c1.2,0,2.2,1,2.2,2.2v25c0,1.2-1,2.2-2.2,2.2H24c-1.2,0-2.2-1-2.2-2.2V25
	C21.8,23.8,22.8,22.8,24,22.8z"/>
<path class="st2" d="M26.6,30.5h2.6c0.3,0,0.5,0.2,0.5,0.5v2c0,0.3-0.2,0.5-0.5,0.5h-2.6c-0.3,0-0.5-0.2-0.5-0.5v-2
	C26.1,30.7,26.3,30.5,26.6,30.5z"/>
<path class="st2" d="M26.6,37.5h2.6c0.3,0,0.5,0.2,0.5,0.5v2c0,0.3-0.2,0.5-0.5,0.5h-2.6c-0.3,0-0.5-0.2-0.5-0.5v-2
	C26.1,37.7,26.3,37.5,26.6,37.5z"/>
<path class="st2" d="M26.6,44.5h2.6c0.3,0,0.5,0.2,0.5,0.5v2c0,0.3-0.2,0.5-0.5,0.5h-2.6c-0.3,0-0.5-0.2-0.5-0.5v-2
	C26.1,44.7,26.3,44.5,26.6,44.5z"/>
<line class="st3" x1="33" y1="31.5" x2="45.9" y2="31.5"/>
<line class="st3" x1="33" y1="38.5" x2="45.9" y2="38.5"/>
<line class="st3" x1="33" y1="45.5" x2="45.9" y2="45.5"/>
<defs>
	<filter id="Adobe_OpacityMaskFilter" filterUnits="userSpaceOnUse" x="29.2" y="18" width="13.5" height="6">
		<feColorMatrix  type="matrix" values="1 0 0 0 0  0 1 0 0 0  0 0 1 0 0  0 0 0 1 0"/>
	</filter>
</defs>
<mask maskUnits="userSpaceOnUse" x="29.2" y="18" width="13.5" height="6" id="path-9-inside-1_469_835_00000137134097134887057110000012028778087335350430_">
	<path class="st4" d="M41.8,23c0-1.1-0.6-2.1-1.7-2.8C39,19.4,37.5,19,36,19c-1.5,0-3,0.4-4.1,1.2c-1.1,0.8-1.7,1.8-1.7,2.8H36H41.8
		z"/>
</mask>
<path class="st5" d="M41.8,23c0-1.1-0.6-2.1-1.7-2.8C39,19.4,37.5,19,36,19c-1.5,0-3,0.4-4.1,1.2c-1.1,0.8-1.7,1.8-1.7,2.8H36H41.8z
	"/>
</svg>
