<svg width="22" height="22" viewBox="0 0 22 22" fill="none" xmlns="http://www.w3.org/2000/svg">
<path d="M5.95834 7.79169L4.4908 8.77004C4.02192 9.08263 3.78747 9.23893 3.61775 9.44542C3.4675 9.62823 3.35477 9.83888 3.28601 10.0653C3.20834 10.3211 3.20834 10.6028 3.20834 11.1664V14.0784C3.20834 15.0864 3.20834 15.5905 3.40452 15.9755C3.5771 16.3142 3.85246 16.5896 4.19115 16.7622C4.57619 16.9584 5.08024 16.9584 6.08833 16.9584H15.9117C16.9198 16.9584 17.4238 16.9584 17.8089 16.7622C18.1475 16.5896 18.4229 16.3142 18.5955 15.9755C18.7917 15.5905 18.7917 15.0864 18.7917 14.0784V11.1663C18.7917 10.6028 18.7917 10.3211 18.714 10.0653C18.6452 9.83888 18.5325 9.62823 18.3823 9.44542C18.2125 9.23893 17.9781 9.08263 17.5092 8.77005L16.0417 7.79169" stroke="#7EC8BA" stroke-linecap="round"/>
<path d="M18.7917 11.4583H16.5665C15.8708 11.4583 15.5229 11.4583 15.2611 11.6471C14.9992 11.8358 14.8883 12.1683 14.6667 12.8333V12.8333C14.445 13.4983 14.3342 13.8308 14.0723 14.0196C13.8104 14.2083 13.4625 14.2083 12.7668 14.2083H9.23319C8.53747 14.2083 8.18961 14.2083 7.92772 14.0196C7.66583 13.8308 7.555 13.4983 7.33334 12.8333V12.8333C7.11167 12.1683 7.00084 11.8358 6.73895 11.6471C6.47707 11.4583 6.12921 11.4583 5.43348 11.4583H3.20834" stroke="#7EC8BA"/>
<path d="M8.70834 5.04169L11 2.75002M11 2.75002L13.2917 5.04169M11 2.75002L11 9.16669" stroke="#7EC8BA"/>
</svg>
