<svg width="35" height="36" viewBox="0 0 35 36" fill="none" xmlns="http://www.w3.org/2000/svg">
<path d="M22.75 3.77273C23.0261 3.77273 23.25 3.54887 23.25 3.27273V1.63636C23.25 1.03986 23.7775 0.5 24.5 0.5C25.2225 0.5 25.75 1.03986 25.75 1.63636V3.27273C25.75 3.54887 25.9739 3.77273 26.25 3.77273H29.75C32.4055 3.77273 34.5 5.77783 34.5 8.18182V31.0909C34.5 33.4949 32.4055 35.5 29.75 35.5H5.25C2.5945 35.5 0.5 33.4949 0.5 31.0909V8.18182C0.5 5.77783 2.5945 3.77273 5.25 3.77273H8.75C9.02614 3.77273 9.25 3.54887 9.25 3.27273V1.63636C9.25 1.03986 9.77749 0.5 10.5 0.5C11.2225 0.5 11.75 1.03986 11.75 1.63636V3.27273C11.75 3.54887 11.9739 3.77273 12.25 3.77273H22.75ZM31.5 13.5909C31.7761 13.5909 32 13.3671 32 13.0909V8.18182C32 6.97085 30.9605 6.04545 29.75 6.04545H26.25C25.9739 6.04545 25.75 6.26931 25.75 6.54545V8.18182C25.75 8.77833 25.2225 9.31818 24.5 9.31818C23.7775 9.31818 23.25 8.77833 23.25 8.18182V6.54545C23.25 6.26931 23.0261 6.04545 22.75 6.04545H12.25C11.9739 6.04545 11.75 6.26931 11.75 6.54545V8.18182C11.75 8.77833 11.2225 9.31818 10.5 9.31818C9.77749 9.31818 9.25 8.77833 9.25 8.18182V6.54545C9.25 6.26931 9.02614 6.04545 8.75 6.04545H5.25C4.03951 6.04545 3 6.97085 3 8.18182V13.0909C3 13.3671 3.22386 13.5909 3.5 13.5909H31.5ZM32 16.3636C32 16.0875 31.7761 15.8636 31.5 15.8636H3.5C3.22386 15.8636 3 16.0875 3 16.3636V31.0909C3 32.3019 4.03951 33.2273 5.25 33.2273H29.75C30.9605 33.2273 32 32.3019 32 31.0909V16.3636Z" fill="white" stroke="#341C4F" stroke-linecap="round" stroke-linejoin="round"/>
</svg>
