<svg width="38" height="38" viewBox="0 0 38 38" fill="none" xmlns="http://www.w3.org/2000/svg">
<path fill-rule="evenodd" clip-rule="evenodd" d="M23.5579 4.28626C25.4129 2.43127 28.4204 2.43127 30.2754 4.28626L33.7137 7.72459C35.5687 9.57958 35.5687 12.5871 33.7137 14.4421L21.7029 26.4529C21.4059 26.7499 21.0032 26.9167 20.5833 26.9167H12.6666C11.7922 26.9167 11.0833 26.2078 11.0833 25.3333V17.4167C11.0833 16.9968 11.2501 16.594 11.547 16.2971L23.5579 4.28626ZM28.0362 6.52543C27.4179 5.9071 26.4154 5.9071 25.797 6.52543L24.4058 7.91668L30.0833 13.5942L31.4745 12.2029C32.0929 11.5846 32.0929 10.5821 31.4745 9.96376L28.0362 6.52543ZM27.8441 15.8333L22.1666 10.1558L14.25 18.0725V23.75H19.9275L27.8441 15.8333ZM11.0833 6.33334C8.45994 6.33334 6.33329 8.45999 6.33329 11.0833V26.9167C6.33329 29.54 8.45994 31.6667 11.0833 31.6667H26.9166C29.54 31.6667 31.6666 29.54 31.6666 26.9167V22.1667C31.6666 21.2922 32.3755 20.5833 33.25 20.5833C34.1244 20.5833 34.8333 21.2922 34.8333 22.1667V26.9167C34.8333 31.2889 31.2889 34.8333 26.9166 34.8333H11.0833C6.71104 34.8333 3.16663 31.2889 3.16663 26.9167V11.0833C3.16663 6.71109 6.71104 3.16668 11.0833 3.16668H15.8333C16.7077 3.16668 17.4166 3.87556 17.4166 4.75001C17.4166 5.62446 16.7077 6.33334 15.8333 6.33334H11.0833Z" fill="white"/>
</svg>
