<svg width="26" height="25" viewBox="0 0 26 25" fill="none" xmlns="http://www.w3.org/2000/svg">
<path d="M9.40813 24.114L9.6453 24.8255L9.6453 24.8255L9.40813 24.114ZM16.9081 21.614L17.1453 22.3255H17.1453L16.9081 21.614ZM24.0405 6.20956L23.5101 5.67923L24.0405 6.20956ZM17.5429 12.7071L18.0732 13.2374L17.5429 12.7071ZM8.45712 12.7071L7.92679 13.2374L8.45712 12.7071ZM2.66669 2.41666H23.3334V0.916664H2.66669V2.41666ZM2.41669 5.50245V2.66666H0.916687V5.50245H2.41669ZM8.98745 12.1768L2.48991 5.67923L1.42925 6.73989L7.92679 13.2374L8.98745 12.1768ZM8.00001 13.4142V23.6396H9.50001V13.4142H8.00001ZM8.00001 23.6396C8.00001 24.4928 8.83588 25.0953 9.6453 24.8255L9.17096 23.4025C9.33284 23.3485 9.50001 23.469 9.50001 23.6396H8.00001ZM9.6453 24.8255L17.1453 22.3255L16.671 20.9025L9.17096 23.4025L9.6453 24.8255ZM17.1453 22.3255C17.6557 22.1553 18 21.6777 18 21.1396H16.5C16.5 21.032 16.5689 20.9365 16.671 20.9025L17.1453 22.3255ZM18 21.1396V13.4142H16.5V21.1396H18ZM23.5101 5.67923L17.0126 12.1768L18.0732 13.2374L24.5708 6.73989L23.5101 5.67923ZM23.5834 2.66666V5.50245H25.0834V2.66666H23.5834ZM24.5708 6.73989C24.899 6.4117 25.0834 5.96658 25.0834 5.50245H23.5834C23.5834 5.56875 23.557 5.63234 23.5101 5.67923L24.5708 6.73989ZM18 13.4142C18 13.3479 18.0264 13.2843 18.0732 13.2374L17.0126 12.1768C16.6844 12.505 16.5 12.9501 16.5 13.4142H18ZM7.92679 13.2374C7.97367 13.2843 8.00001 13.3479 8.00001 13.4142H9.50001C9.50001 12.9501 9.31564 12.505 8.98745 12.1768L7.92679 13.2374ZM0.916687 5.50245C0.916687 5.96658 1.10106 6.4117 1.42925 6.73989L2.48991 5.67923C2.44303 5.63234 2.41669 5.56875 2.41669 5.50245H0.916687ZM23.3334 2.41666C23.4714 2.41666 23.5834 2.52859 23.5834 2.66666H25.0834C25.0834 1.70017 24.2999 0.916664 23.3334 0.916664V2.41666ZM2.66669 0.916664C1.70019 0.916664 0.916687 1.70017 0.916687 2.66666H2.41669C2.41669 2.52859 2.52862 2.41666 2.66669 2.41666V0.916664Z" fill="white"/>
</svg>
