<svg width="22" height="22" viewBox="0 0 22 22" fill="none" xmlns="http://www.w3.org/2000/svg">
<path fill-rule="evenodd" clip-rule="evenodd" d="M8.84545 0.973742C8.869 0.981587 8.90246 0.99288 8.94518 1.00766C9.0306 1.03721 9.1531 1.08074 9.3074 1.13854C9.61584 1.25408 10.0523 1.42702 10.5742 1.65986C11.6155 2.12437 13.0103 2.83315 14.4113 3.80877C17.1829 5.73879 20.1667 8.85215 20.1667 13.3277C20.1667 15.2843 19.6446 17.2213 18.4292 18.6868C17.1923 20.1782 15.3171 21.0833 12.8333 21.0833C12.7739 21.0833 12.5356 21.0813 12.2988 20.9115C11.9685 20.6746 11.8891 20.3079 11.9245 20.0444C11.9511 19.846 12.0363 19.7106 12.0611 19.6718C12.0969 19.616 12.1311 19.5759 12.1489 19.556C12.1853 19.5152 12.2174 19.4866 12.229 19.4764C12.2444 19.4629 12.2573 19.4523 12.2651 19.4461C12.2893 19.4268 12.313 19.41 12.3202 19.4048L12.3212 19.4041L12.392 19.3541C12.4448 19.3166 12.5205 19.2619 12.6122 19.1902C12.7972 19.0454 13.0439 18.8338 13.2888 18.5648C13.7911 18.0133 14.2083 17.3084 14.2083 16.5C14.2083 15.0041 13.3567 13.6138 12.3812 12.5299C11.9047 12.0005 11.4257 11.5744 11.0655 11.2809C11.0432 11.2627 11.0213 11.2451 11 11.228C10.9787 11.2451 10.9568 11.2627 10.9345 11.2809C10.5743 11.5744 10.0953 12.0005 9.61886 12.5299C8.64329 13.6138 7.79167 15.0041 7.79167 16.5C7.79167 17.3146 8.20789 18.0199 8.70673 18.5683C8.95039 18.8362 9.1959 19.0464 9.38001 19.1895C9.47129 19.2605 9.54632 19.3141 9.59747 19.3497C9.61892 19.3646 9.63559 19.3759 9.6508 19.3863L9.6618 19.3938C9.66813 19.3981 9.68309 19.4083 9.6971 19.4184C9.70129 19.4214 9.72939 19.4414 9.76031 19.4678C9.77015 19.4761 9.78745 19.4912 9.80787 19.5112C9.82242 19.5255 9.86761 19.5701 9.91443 19.6361C9.93883 19.6723 9.99261 19.7686 10.0194 19.8298C10.0529 19.9317 10.0825 20.2079 10.0589 20.3775C9.98252 20.5848 9.71915 20.8982 9.55544 20.9968C9.43972 21.0417 9.24311 21.0801 9.16667 21.0833C6.68291 21.0833 4.80772 20.1782 3.57082 18.6868C2.3554 17.2213 1.83334 15.2843 1.83334 13.3277C1.83334 10.9901 2.64328 9.51636 3.71513 8.39212C4.21346 7.86943 4.76406 7.42703 5.25781 7.0303C5.27091 7.01978 5.28397 7.00929 5.29698 6.99882C5.81719 6.58075 6.27251 6.21122 6.66214 5.79233C7.61586 4.76699 7.83242 3.83821 7.84717 3.2065C7.85479 2.88055 7.80869 2.61629 7.76365 2.44026C7.74121 2.35255 7.71936 2.28805 7.70543 2.25041C7.69848 2.23165 7.69357 2.21976 7.69165 2.21521C7.54165 1.88714 7.59764 1.50029 7.83605 1.22865C8.087 0.942709 8.49083 0.856623 8.84545 0.973742ZM11.5701 9.36282C11.6057 9.38757 11.6556 9.42288 11.7178 9.46832C11.8422 9.55911 12.0163 9.69075 12.2236 9.85966C12.6368 10.1964 13.1891 10.687 13.7439 11.3034C14.8308 12.5111 16.0417 14.3292 16.0417 16.5C16.0417 17.3683 15.7761 18.1203 15.4234 18.7378C16.0821 18.4345 16.6066 18.0125 17.018 17.5165C17.8896 16.4655 18.3333 14.983 18.3333 13.3277C18.3333 9.7513 15.9546 7.11746 13.3637 5.31327C12.0835 4.42179 10.797 3.76672 9.82733 3.33415C9.77716 3.31177 9.72787 3.29 9.67951 3.26884C9.65053 4.32788 9.26815 5.68246 8.00453 7.04096C7.51118 7.57137 6.95295 8.02 6.44891 8.42508L6.44545 8.42786C5.92398 8.84695 5.45529 9.22375 5.04204 9.6572C4.26428 10.473 3.66667 11.5043 3.66667 13.3277C3.66667 14.983 4.11036 16.4655 4.98199 17.5165C5.39214 18.011 5.9147 18.4318 6.57049 18.735C6.22062 18.1181 5.95834 17.3673 5.95834 16.5C5.95834 14.3292 7.16922 12.5111 8.25615 11.3034C8.81093 10.687 9.36319 10.1964 9.77644 9.85966C9.98374 9.69075 10.1578 9.55911 10.2822 9.46832C10.3444 9.42288 10.3943 9.38757 10.4299 9.36282C10.7691 9.12664 11.2284 9.12486 11.5701 9.36282Z" fill="#DC143C" stroke="#341C4F" stroke-linecap="round" stroke-linejoin="round"/>
</svg>
