<svg width="32" height="28" viewBox="0 0 32 28" fill="none" xmlns="http://www.w3.org/2000/svg">
<g clip-path="url(#clip0_118_813)">
<path fill-rule="evenodd" clip-rule="evenodd" d="M5.99757 14.5982C6.29416 13.9373 7.23235 13.9373 7.52894 14.5982L8.97762 17.8259L12.4951 18.2063C13.2152 18.2841 13.5051 19.1764 12.9683 19.6627L10.3462 22.0379L11.0714 25.5008C11.2199 26.2097 10.4609 26.7611 9.8325 26.4009L6.76325 24.6411L3.694 26.4009C3.06564 26.7611 2.30663 26.2097 2.4551 25.5007L3.18033 22.0379L0.558199 19.6627C0.021374 19.1764 0.311293 18.2841 1.03142 18.2063L4.54888 17.8259L5.99757 14.5982ZM6.76325 15.6474L5.51034 18.439C5.3883 18.711 5.1312 18.8977 4.83488 18.9298L1.79275 19.2587L4.06053 21.313C4.28143 21.5131 4.37963 21.8153 4.31853 22.107L3.69131 25.1019L6.3458 23.5799C6.60436 23.4317 6.92215 23.4317 7.18071 23.5799L9.83519 25.1019L9.20797 22.107C9.14688 21.8153 9.24508 21.5131 9.46597 21.313L11.7338 19.2587L8.69163 18.9298C8.39531 18.8977 8.13821 18.711 8.01617 18.439L6.76325 15.6474Z" fill="#7EC8BA"/>
</g>
<g clip-path="url(#clip1_118_813)">
<path fill-rule="evenodd" clip-rule="evenodd" d="M14.6129 1.0597C14.9095 0.398881 15.8477 0.398883 16.1443 1.0597L17.593 4.28748L21.1104 4.66782C21.8306 4.74569 22.1205 5.63796 21.5837 6.12424L18.9615 8.49946L19.6868 11.9623C19.8352 12.6712 19.0762 13.2227 18.4479 12.8624L15.3786 11.1026L12.3094 12.8624C11.681 13.2227 10.922 12.6712 11.0705 11.9623L11.7957 8.49946L9.17356 6.12424C8.63673 5.63796 8.92665 4.74569 9.64677 4.66782L13.1642 4.28748L14.6129 1.0597ZM15.3786 2.109L14.1257 4.90058C14.0037 5.1725 13.7466 5.35929 13.4502 5.39133L10.4081 5.72028L12.6759 7.77452C12.8968 7.97462 12.995 8.27685 12.9339 8.56857L12.3067 11.5635L14.9612 10.0415C15.2197 9.89321 15.5375 9.89321 15.7961 10.0415L18.4505 11.5635L17.8233 8.56857C17.7622 8.27686 17.8604 7.97462 18.0813 7.77452L20.3491 5.72028L17.307 5.39133C17.0107 5.35929 16.7536 5.1725 16.6315 4.90058L15.3786 2.109Z" fill="#7EC8BA"/>
</g>
<g clip-path="url(#clip2_118_813)">
<path fill-rule="evenodd" clip-rule="evenodd" d="M24.4591 14.5982C24.7557 13.9373 25.6939 13.9373 25.9905 14.5982L27.4392 17.8259L30.9566 18.2063C31.6768 18.2841 31.9667 19.1764 31.4299 19.6627L28.8077 22.0379L29.533 25.5008C29.6814 26.2097 28.9224 26.7611 28.294 26.4009L25.2248 24.6411L22.1556 26.4009C21.5272 26.7611 20.7682 26.2097 20.9166 25.5007L21.6419 22.0379L19.0197 19.6627C18.4829 19.1764 18.7728 18.2841 19.493 18.2063L23.0104 17.8259L24.4591 14.5982ZM25.2248 15.6474L23.9719 18.439C23.8498 18.711 23.5927 18.8977 23.2964 18.9298L20.2543 19.2587L22.5221 21.313C22.743 21.5131 22.8412 21.8153 22.7801 22.107L22.1529 25.1019L24.8073 23.5799C25.0659 23.4317 25.3837 23.4317 25.6423 23.5799L28.2967 25.1019L27.6695 22.107C27.6084 21.8153 27.7066 21.5131 27.9275 21.313L30.1953 19.2587L27.1532 18.9298C26.8569 18.8977 26.5998 18.711 26.4777 18.439L25.2248 15.6474Z" fill="#7EC8BA"/>
</g>
<defs>
<clipPath id="clip0_118_813">
<rect width="13.5385" height="13.5385" fill="white" transform="translate(0 13.5385)"/>
</clipPath>
<clipPath id="clip1_118_813">
<rect width="13.5385" height="13.5385" fill="white" transform="translate(8.61536)"/>
</clipPath>
<clipPath id="clip2_118_813">
<rect width="13.5385" height="13.5385" fill="white" transform="translate(18.4615 13.5385)"/>
</clipPath>
</defs>
</svg>
