<svg width="34" height="34" viewBox="0 0 34 34" fill="none" xmlns="http://www.w3.org/2000/svg">
<g clip-path="url(#clip0_409_874)">
<path fill-rule="evenodd" clip-rule="evenodd" d="M6.99763 17.5981C7.29422 16.9373 8.23241 16.9373 8.529 17.5981L9.97768 20.8259L13.4951 21.2062C14.2153 21.2841 14.5052 22.1764 13.9684 22.6626L11.3462 25.0378L12.0715 28.5007C12.2199 29.2096 11.4609 29.7611 10.8326 29.4008L7.76331 27.641L4.69406 29.4008C4.0657 29.7611 3.30669 29.2096 3.45516 28.5007L4.18039 25.0378L1.55826 22.6626C1.02144 22.1764 1.31135 21.2841 2.03148 21.2062L5.54894 20.8259L6.99763 17.5981ZM7.76331 18.6474L6.5104 21.439C6.38836 21.7109 6.13126 21.8977 5.83494 21.9297L2.79281 22.2587L5.06059 24.3129C5.28149 24.513 5.37969 24.8152 5.3186 25.107L4.69137 28.1018L7.34586 26.5799C7.60442 26.4316 7.92221 26.4316 8.18077 26.5799L10.8353 28.1018L10.208 25.107C10.1469 24.8152 10.2451 24.513 10.466 24.3129L12.7338 22.2587L9.69169 21.9297C9.39537 21.8977 9.13827 21.7109 9.01623 21.439L7.76331 18.6474Z" fill="#7EC8BA"/>
</g>
<g clip-path="url(#clip1_409_874)">
<path fill-rule="evenodd" clip-rule="evenodd" d="M15.613 4.0597C15.9096 3.39888 16.8478 3.39888 17.1444 4.0597L18.593 7.28748L22.1105 7.66782C22.8306 7.74569 23.1205 8.63796 22.5837 9.12424L19.9616 11.4995L20.6868 14.9623C20.8353 15.6712 20.0763 16.2227 19.4479 15.8624L16.3787 14.1026L13.3094 15.8624C12.6811 16.2227 11.922 15.6712 12.0705 14.9623L12.7957 11.4995L10.1736 9.12424C9.63679 8.63796 9.92671 7.74569 10.6468 7.66782L14.1643 7.28748L15.613 4.0597ZM16.3787 5.109L15.1258 7.90058C15.0037 8.1725 14.7466 8.35929 14.4503 8.39133L11.4082 8.72028L13.6759 10.7745C13.8968 10.9746 13.995 11.2769 13.934 11.5686L13.3067 14.5635L15.9612 13.0415C16.2198 12.8932 16.5376 12.8932 16.7961 13.0415L19.4506 14.5635L18.8234 11.5686C18.7623 11.2769 18.8605 10.9746 19.0814 10.7745L21.3492 8.72028L18.307 8.39133C18.0107 8.35929 17.7536 8.1725 17.6316 7.90058L16.3787 5.109Z" fill="#7EC8BA"/>
</g>
<g clip-path="url(#clip2_409_874)">
<path fill-rule="evenodd" clip-rule="evenodd" d="M25.4592 17.5981C25.7558 16.9373 26.694 16.9373 26.9905 17.5981L28.4392 20.8259L31.9567 21.2062C32.6768 21.2841 32.9667 22.1764 32.4299 22.6626L29.8078 25.0378L30.533 28.5007C30.6815 29.2096 29.9225 29.7611 29.2941 29.4008L26.2249 27.641L23.1556 29.4008C22.5272 29.7611 21.7682 29.2096 21.9167 28.5007L22.6419 25.0378L20.0198 22.6626C19.483 22.1764 19.7729 21.2841 20.493 21.2062L24.0105 20.8259L25.4592 17.5981ZM26.2249 18.6474L24.9719 21.439C24.8499 21.7109 24.5928 21.8977 24.2965 21.9297L21.2544 22.2587L23.5221 24.3129C23.743 24.513 23.8412 24.8152 23.7801 25.107L23.1529 28.1018L25.8074 26.5799C26.066 26.4316 26.3838 26.4316 26.6423 26.5799L29.2968 28.1018L28.6696 25.107C28.6085 24.8152 28.7067 24.513 28.9276 24.3129L31.1954 22.2587L28.1532 21.9297C27.8569 21.8977 27.5998 21.7109 27.4778 21.439L26.2249 18.6474Z" fill="#7EC8BA"/>
</g>
<defs>
<clipPath id="clip0_409_874">
<rect width="13.5385" height="13.5385" fill="white" transform="translate(1 16.5384)"/>
</clipPath>
<clipPath id="clip1_409_874">
<rect width="13.5385" height="13.5385" fill="white" transform="translate(9.61536 3)"/>
</clipPath>
<clipPath id="clip2_409_874">
<rect width="13.5385" height="13.5385" fill="white" transform="translate(19.4615 16.5384)"/>
</clipPath>
</defs>
</svg>
