<svg width="41" height="41" viewBox="0 0 41 41" fill="none" xmlns="http://www.w3.org/2000/svg">
<path d="M20.5 41C9.17816 41 0 31.8217 0 20.5C0 9.17816 9.17816 0 20.5 0C31.8217 0 41 9.17816 41 20.5C40.9875 31.8166 31.8166 40.9875 20.5 41ZM4.1 20.8526C4.19701 29.8751 11.5643 37.1245 20.5871 37.0763C29.6102 37.0275 36.899 29.6994 36.899 20.6763C36.899 11.6532 29.6102 4.32503 20.5871 4.2763C11.5643 4.22804 4.19701 11.4775 4.1 20.5V20.8526ZM24.6 30.75H18.45V22.55H16.4V18.45H22.55V26.65H24.6V30.75ZM22.55 14.35H18.45V10.25H22.55V14.35Z" fill="white"/>
</svg>
