<svg width="14" height="15" viewBox="0 0 14 15" fill="none" xmlns="http://www.w3.org/2000/svg">
<g clip-path="url(#clip0_118_833)">
<path fill-rule="evenodd" clip-rule="evenodd" d="M5.99763 1.59815C6.29422 0.937333 7.23241 0.937336 7.529 1.59815L8.97768 4.82593L12.4951 5.20627C13.2153 5.28414 13.5052 6.17641 12.9684 6.66269L10.3462 9.03791L11.0715 12.5008C11.2199 13.2097 10.4609 13.7611 9.83256 13.4009L6.76331 11.6411L3.69406 13.4009C3.0657 13.7611 2.30669 13.2097 2.45516 12.5007L3.18039 9.03791L0.558261 6.66269C0.0214351 6.17641 0.311354 5.28414 1.03148 5.20627L4.54894 4.82593L5.99763 1.59815ZM6.76331 2.64745L5.5104 5.43903C5.38836 5.71095 5.13126 5.89774 4.83494 5.92979L1.79281 6.25873L4.06059 8.31297C4.28149 8.51307 4.37969 8.8153 4.3186 9.10702L3.69137 12.1019L6.34586 10.5799C6.60442 10.4317 6.92221 10.4317 7.18077 10.5799L9.83525 12.1019L9.20803 9.10702C9.14694 8.81531 9.24514 8.51307 9.46603 8.31297L11.7338 6.25873L8.69169 5.92978C8.39537 5.89774 8.13827 5.71095 8.01623 5.43903L6.76331 2.64745Z" fill="#7EC8BA"/>
</g>
<defs>
<clipPath id="clip0_118_833">
<rect width="13.5385" height="13.5385" fill="white" transform="translate(0 0.538452)"/>
</clipPath>
</defs>
</svg>
