<svg width="34" height="34" viewBox="0 0 34 34" fill="none" xmlns="http://www.w3.org/2000/svg">
<g clip-path="url(#clip0_409_869)">
<path fill-rule="evenodd" clip-rule="evenodd" d="M15.9976 11.0597C16.2942 10.3989 17.2324 10.3989 17.529 11.0597L18.9777 14.2875L22.4951 14.6678C23.2153 14.7457 23.5052 15.638 22.9684 16.1242L20.3462 18.4995L21.0715 21.9623C21.2199 22.6712 20.4609 23.2227 19.8326 22.8624L16.7633 21.1026L13.6941 22.8624C13.0657 23.2227 12.3067 22.6712 12.4552 21.9623L13.1804 18.4995L10.5583 16.1242C10.0214 15.638 10.3114 14.7457 11.0315 14.6678L14.5489 14.2875L15.9976 11.0597ZM16.7633 12.109L15.5104 14.9006C15.3884 15.1725 15.1313 15.3593 14.8349 15.3913L11.7928 15.7203L14.0606 17.7745C14.2815 17.9746 14.3797 18.2769 14.3186 18.5686L13.6914 21.5635L16.3459 20.0415C16.6044 19.8932 16.9222 19.8932 17.1808 20.0415L19.8353 21.5635L19.208 18.5686C19.1469 18.2769 19.2451 17.9746 19.466 17.7745L21.7338 15.7203L18.6917 15.3913C18.3954 15.3593 18.1383 15.1725 18.0162 14.9006L16.7633 12.109Z" fill="#7EC8BA"/>
</g>
<defs>
<clipPath id="clip0_409_869">
<rect width="13.5385" height="13.5385" fill="white" transform="translate(10 10)"/>
</clipPath>
</defs>
</svg>
