<svg width="34" height="34" viewBox="0 0 34 34" fill="none" xmlns="http://www.w3.org/2000/svg">
<g clip-path="url(#clip0_409_871)">
<path fill-rule="evenodd" clip-rule="evenodd" d="M6.99763 11.0597C7.29422 10.3989 8.23241 10.3989 8.529 11.0597L9.97768 14.2875L13.4951 14.6678C14.2153 14.7457 14.5052 15.638 13.9684 16.1242L11.3462 18.4995L12.0715 21.9623C12.2199 22.6712 11.4609 23.2227 10.8326 22.8624L7.76331 21.1026L4.69406 22.8624C4.0657 23.2227 3.30669 22.6712 3.45516 21.9623L4.18039 18.4995L1.55826 16.1242C1.02144 15.638 1.31135 14.7457 2.03148 14.6678L5.54894 14.2875L6.99763 11.0597ZM7.76331 12.109L6.5104 14.9006C6.38836 15.1725 6.13126 15.3593 5.83494 15.3913L2.79281 15.7203L5.06059 17.7745C5.28149 17.9746 5.37969 18.2769 5.3186 18.5686L4.69137 21.5635L7.34586 20.0415C7.60442 19.8932 7.92221 19.8932 8.18077 20.0415L10.8353 21.5635L10.208 18.5686C10.1469 18.2769 10.2451 17.9746 10.466 17.7745L12.7338 15.7203L9.69169 15.3913C9.39537 15.3593 9.13827 15.1725 9.01623 14.9006L7.76331 12.109Z" fill="#7EC8BA"/>
</g>
<g clip-path="url(#clip1_409_871)">
<path fill-rule="evenodd" clip-rule="evenodd" d="M25.4592 11.0597C25.7558 10.3989 26.694 10.3989 26.9905 11.0597L28.4392 14.2875L31.9567 14.6678C32.6768 14.7457 32.9667 15.638 32.4299 16.1242L29.8078 18.4995L30.533 21.9623C30.6815 22.6712 29.9225 23.2227 29.2941 22.8624L26.2249 21.1026L23.1556 22.8624C22.5272 23.2227 21.7682 22.6712 21.9167 21.9623L22.6419 18.4995L20.0198 16.1242C19.483 15.638 19.7729 14.7457 20.493 14.6678L24.0105 14.2875L25.4592 11.0597ZM26.2249 12.109L24.9719 14.9006C24.8499 15.1725 24.5928 15.3593 24.2965 15.3913L21.2544 15.7203L23.5221 17.7745C23.743 17.9746 23.8412 18.2769 23.7801 18.5686L23.1529 21.5635L25.8074 20.0415C26.066 19.8932 26.3838 19.8932 26.6423 20.0415L29.2968 21.5635L28.6696 18.5686C28.6085 18.2769 28.7067 17.9746 28.9276 17.7745L31.1954 15.7203L28.1532 15.3913C27.8569 15.3593 27.5998 15.1725 27.4778 14.9006L26.2249 12.109Z" fill="#7EC8BA"/>
</g>
<defs>
<clipPath id="clip0_409_871">
<rect width="13.5385" height="13.5385" fill="white" transform="translate(1 10)"/>
</clipPath>
<clipPath id="clip1_409_871">
<rect width="13.5385" height="13.5385" fill="white" transform="translate(19.4615 10)"/>
</clipPath>
</defs>
</svg>
