<svg width="32" height="15" viewBox="0 0 32 15" fill="none" xmlns="http://www.w3.org/2000/svg">
<g clip-path="url(#clip0_118_823)">
<path fill-rule="evenodd" clip-rule="evenodd" d="M5.99763 1.59815C6.29422 0.937333 7.23241 0.937336 7.529 1.59815L8.97768 4.82593L12.4951 5.20627C13.2153 5.28414 13.5052 6.17641 12.9684 6.66269L10.3462 9.03791L11.0715 12.5008C11.2199 13.2097 10.4609 13.7611 9.83256 13.4009L6.76331 11.6411L3.69406 13.4009C3.0657 13.7611 2.30669 13.2097 2.45516 12.5007L3.18039 9.03791L0.558261 6.66269C0.0214351 6.17641 0.311354 5.28414 1.03148 5.20627L4.54894 4.82593L5.99763 1.59815ZM6.76331 2.64745L5.5104 5.43903C5.38836 5.71095 5.13126 5.89774 4.83494 5.92979L1.79281 6.25873L4.06059 8.31297C4.28149 8.51307 4.37969 8.8153 4.3186 9.10702L3.69137 12.1019L6.34586 10.5799C6.60442 10.4317 6.92221 10.4317 7.18077 10.5799L9.83525 12.1019L9.20803 9.10702C9.14694 8.81531 9.24514 8.51307 9.46603 8.31297L11.7338 6.25873L8.69169 5.92978C8.39537 5.89774 8.13827 5.71095 8.01623 5.43903L6.76331 2.64745Z" fill="#7EC8BA"/>
</g>
<g clip-path="url(#clip1_118_823)">
<path fill-rule="evenodd" clip-rule="evenodd" d="M24.4592 1.59815C24.7558 0.937333 25.694 0.937336 25.9905 1.59815L27.4392 4.82593L30.9567 5.20627C31.6768 5.28414 31.9667 6.17641 31.4299 6.66269L28.8078 9.03791L29.533 12.5008C29.6815 13.2097 28.9225 13.7611 28.2941 13.4009L25.2249 11.6411L22.1556 13.4009C21.5272 13.7611 20.7682 13.2097 20.9167 12.5007L21.6419 9.03791L19.0198 6.66269C18.483 6.17641 18.7729 5.28414 19.493 5.20627L23.0105 4.82593L24.4592 1.59815ZM25.2249 2.64745L23.9719 5.43903C23.8499 5.71095 23.5928 5.89774 23.2965 5.92979L20.2544 6.25873L22.5221 8.31297C22.743 8.51307 22.8412 8.8153 22.7801 9.10702L22.1529 12.1019L24.8074 10.5799C25.066 10.4317 25.3838 10.4317 25.6423 10.5799L28.2968 12.1019L27.6696 9.10702C27.6085 8.81531 27.7067 8.51307 27.9276 8.31297L30.1954 6.25873L27.1532 5.92978C26.8569 5.89774 26.5998 5.71095 26.4778 5.43903L25.2249 2.64745Z" fill="#7EC8BA"/>
</g>
<defs>
<clipPath id="clip0_118_823">
<rect width="13.5385" height="13.5385" fill="white" transform="translate(0 0.538452)"/>
</clipPath>
<clipPath id="clip1_118_823">
<rect width="13.5385" height="13.5385" fill="white" transform="translate(18.4615 0.538452)"/>
</clipPath>
</defs>
</svg>
