<svg width="33" height="33" viewBox="0 0 33 33" fill="none" xmlns="http://www.w3.org/2000/svg">
<path d="M1.41421 31.1127C0.633165 30.3317 0.633165 29.0653 1.41421 28.2843L28.2843 1.41422C29.0653 0.633168 30.3316 0.633167 31.1127 1.41422C31.8937 2.19526 31.8937 3.46159 31.1127 4.24264L4.24264 31.1127C3.46159 31.8937 2.19526 31.8937 1.41421 31.1127Z" fill="white"/>
<path d="M1.41416 1.41421C2.1952 0.633165 3.46153 0.633165 4.24258 1.41421L31.1126 28.2843C31.8937 29.0653 31.8937 30.3317 31.1126 31.1127C30.3316 31.8937 29.0653 31.8937 28.2842 31.1127L1.41416 4.24264C0.633107 3.46159 0.633107 2.19526 1.41416 1.41421Z" fill="white"/>
</svg>
