<svg width="30" height="30" viewBox="0 0 30 30" fill="none" xmlns="http://www.w3.org/2000/svg">
<path d="M0 28C0 26.8954 0.895431 26 2 26H28C29.1046 26 30 26.8954 30 28C30 29.1046 29.1046 30 28 30H2C0.89543 30 0 29.1046 0 28Z" fill="white"/>
<path d="M0 15C0 13.8954 0.895431 13 2 13H28C29.1046 13 30 13.8954 30 15C30 16.1046 29.1046 17 28 17H2C0.89543 17 0 16.1046 0 15Z" fill="white"/>
<path d="M0 2C0 0.895431 0.895431 0 2 0H28C29.1046 0 30 0.895431 30 2C30 3.10457 29.1046 4 28 4H2C0.89543 4 0 3.10457 0 2Z" fill="white"/>
</svg>
