<svg width="43" height="43" viewBox="0 0 43 43" fill="none" xmlns="http://www.w3.org/2000/svg">
<path d="M38.029 41.358L38.3784 41.6987L38.7275 41.3576L41.3495 38.7953L41.715 38.4382L41.3499 38.0805L29.5637 26.5351C31.8373 23.7882 33.197 20.2931 33.197 16.4875C33.197 7.65612 25.8574 0.5 16.8485 0.5C7.83966 0.5 0.5 7.65612 0.5 16.4875C0.5 25.319 7.83966 32.4751 16.8485 32.4751C20.2641 32.4751 23.4335 31.445 26.0579 29.6874L38.029 41.358ZM16.8485 3.32206C24.3182 3.32206 30.3325 9.21576 30.3325 16.4875C30.3325 23.7593 24.3182 29.653 16.8485 29.653C9.37884 29.653 3.36453 23.7593 3.36453 16.4875C3.36453 9.21576 9.37884 3.32206 16.8485 3.32206Z" fill="white" stroke="white"/>
</svg>
