<svg width="38" height="38" viewBox="0 0 38 38" fill="none" xmlns="http://www.w3.org/2000/svg">
<path fill-rule="evenodd" clip-rule="evenodd" d="M22.3467 4.96766V4.96768L22.4552 6.05275C22.6186 7.68628 22.7003 8.50305 23.2531 8.73204C23.8059 8.96102 24.4412 8.44123 25.7118 7.40165L26.5557 6.71114C27.2215 6.16643 27.5544 5.89408 27.9392 5.91327C28.324 5.93246 28.6282 6.23659 29.2364 6.84485L31.1551 8.7635C31.7633 9.37175 32.0675 9.67588 32.0867 10.0607C32.1058 10.4455 31.8335 10.7784 31.2888 11.4442L30.5982 12.2882C29.5587 13.5588 29.0389 14.1941 29.2679 14.7469C29.4968 15.2997 30.3136 15.3814 31.9471 15.5447L33.0323 15.6533C33.8882 15.7388 34.3162 15.7816 34.5747 16.0673C34.8333 16.353 34.8333 16.7831 34.8333 17.6433V20.3567C34.8333 21.2169 34.8333 21.647 34.5747 21.9327C34.3162 22.2184 33.8882 22.2612 33.0323 22.3468H33.0323L31.9477 22.4552C30.3142 22.6186 29.4974 22.7003 29.2684 23.2531C29.0395 23.8059 29.5593 24.4412 30.5988 25.7118L31.2889 26.5552C31.8336 27.2209 32.1059 27.5538 32.0867 27.9386C32.0675 28.3235 31.7634 28.6276 31.1552 29.2358L29.2365 31.1545C28.6282 31.7627 28.3241 32.0669 27.9393 32.0861C27.5544 32.1053 27.2216 31.8329 26.5558 31.2882L25.7119 30.5977C24.4413 29.5581 23.806 29.0383 23.2531 29.2673C22.7003 29.4963 22.6187 30.3131 22.4553 31.9466L22.3467 33.0324V33.0324C22.2611 33.8883 22.2183 34.3163 21.9326 34.5748C21.647 34.8334 21.2169 34.8334 20.3567 34.8334H17.6433C16.7831 34.8334 16.353 34.8334 16.0673 34.5748C15.7816 34.3163 15.7388 33.8883 15.6532 33.0324L15.5447 31.9472C15.3813 30.3137 15.2996 29.4969 14.7468 29.2679C14.194 29.0389 13.5587 29.5587 12.2881 30.5983L11.4441 31.2889C10.7783 31.8336 10.4454 32.106 10.0606 32.0868C9.67575 32.0676 9.37162 31.7635 8.76338 31.1552L8.76337 31.1552L6.84471 29.2366C6.23646 28.6283 5.93233 28.3242 5.91314 27.9393C5.89395 27.5545 6.1663 27.2216 6.71101 26.5559L7.40158 25.7118C8.44116 24.4412 8.96095 23.806 8.73196 23.2531C8.50298 22.7003 7.68621 22.6186 6.05267 22.4553L4.96762 22.3468H4.9676C4.11168 22.2612 3.68372 22.2184 3.42517 21.9327C3.16663 21.647 3.16663 21.2169 3.16663 20.3567L3.16663 17.6433C3.16663 16.7831 3.16663 16.353 3.42517 16.0673C3.68372 15.7816 4.11169 15.7388 4.96762 15.6533L6.05327 15.5447C7.68681 15.3813 8.50358 15.2997 8.73256 14.7468C8.96154 14.194 8.44175 13.5587 7.40218 12.2881L6.71108 11.4435C6.16637 10.7777 5.89402 10.4448 5.91321 10.06C5.9324 9.67516 6.23653 9.37103 6.84478 8.76278L8.76344 6.84413C9.37169 6.23587 9.67582 5.93175 10.0607 5.91255C10.4455 5.89336 10.7784 6.16572 11.4441 6.71043L12.2882 7.40103C13.5588 8.44061 14.1941 8.9604 14.7469 8.73141C15.2997 8.50243 15.3814 7.68566 15.5447 6.05212L15.6532 4.96768C15.7388 4.11175 15.7816 3.68378 16.0673 3.42523C16.353 3.16669 16.7831 3.16669 17.6433 3.16669H20.3566C21.2168 3.16669 21.647 3.16669 21.9326 3.42523C22.2183 3.68378 22.2611 4.11174 22.3467 4.96766ZM19 25.3334C22.4978 25.3334 25.3333 22.4978 25.3333 19C25.3333 15.5022 22.4978 12.6667 19 12.6667C15.5022 12.6667 12.6666 15.5022 12.6666 19C12.6666 22.4978 15.5022 25.3334 19 25.3334Z" fill="white" fill-opacity="0.25"/>
<path d="M22.3467 4.96768H22.0967V4.98015L22.098 4.99256L22.3467 4.96768ZM22.3467 4.96766H22.5967V4.95519L22.5955 4.94278L22.3467 4.96766ZM22.4552 6.05275L22.704 6.02787L22.704 6.02787L22.4552 6.05275ZM23.2531 8.73204L23.3487 8.50107L23.3487 8.50107L23.2531 8.73204ZM25.7118 7.40165L25.8701 7.59514L25.8701 7.59514L25.7118 7.40165ZM26.5557 6.71115L26.3974 6.51766L26.3974 6.51766L26.5557 6.71115ZM27.9392 5.91327L27.9268 6.16296L27.9268 6.16296L27.9392 5.91327ZM29.2364 6.84485L29.0597 7.02162L29.0597 7.02162L29.2364 6.84485ZM31.1551 8.7635L31.3319 8.58672L31.3319 8.58672L31.1551 8.7635ZM32.0867 10.0607L32.3363 10.0483L32.3363 10.0483L32.0867 10.0607ZM31.2888 11.4442L31.4823 11.6025L31.4823 11.6025L31.2888 11.4442ZM30.5982 12.2882L30.4047 12.1299L30.4047 12.1299L30.5982 12.2882ZM31.9471 15.5447L31.9223 15.7935L31.9223 15.7935L31.9471 15.5447ZM33.0323 15.6533L33.0572 15.4045L33.0572 15.4045L33.0323 15.6533ZM34.5747 16.0673L34.7601 15.8996L34.7601 15.8996L34.5747 16.0673ZM34.5747 21.9327L34.7601 22.1005L34.7601 22.1005L34.5747 21.9327ZM33.0323 22.3468V22.5968H33.0448L33.0572 22.5955L33.0323 22.3468ZM33.0323 22.3468V22.0968H33.0198L33.0074 22.098L33.0323 22.3468ZM31.9477 22.4552L31.9229 22.2065L31.9229 22.2065L31.9477 22.4552ZM30.5988 25.7118L30.4053 25.8701L30.4053 25.8701L30.5988 25.7118ZM31.2889 26.5552L31.4823 26.3968L31.4823 26.3968L31.2889 26.5552ZM32.0867 27.9386L32.3364 27.9511L32.3364 27.9511L32.0867 27.9386ZM31.1551 29.2358L31.3319 29.4126L31.3319 29.4126L31.1551 29.2358ZM29.2365 31.1545L29.0597 30.9777L29.0597 30.9777L29.2365 31.1545ZM26.5558 31.2882L26.7141 31.0947L26.7141 31.0947L26.5558 31.2882ZM25.7118 30.5977L25.5535 30.7912L25.5535 30.7912L25.7118 30.5977ZM22.4553 31.9466L22.2065 31.9217L22.2065 31.9217L22.4553 31.9466ZM22.3467 33.0324L22.098 33.0075L22.0967 33.0199V33.0324H22.3467ZM22.3467 33.0324L22.5955 33.0573L22.5967 33.0448V33.0324H22.3467ZM21.9326 34.5748L22.1004 34.7602L22.1004 34.7602L21.9326 34.5748ZM16.0673 34.5748L15.8995 34.7602L15.8995 34.7602L16.0673 34.5748ZM15.6532 33.0324L15.902 33.0075L15.902 33.0075L15.6532 33.0324ZM15.5447 31.9472L15.2959 31.9721L15.2959 31.9721L15.5447 31.9472ZM12.2881 30.5983L12.1298 30.4048L12.1298 30.4048L12.2881 30.5983ZM11.4441 31.2889L11.6024 31.4824L11.6024 31.4824L11.4441 31.2889ZM10.0606 32.0868L10.0481 32.3365L10.0481 32.3365L10.0606 32.0868ZM8.76337 31.1552L8.58659 31.332L8.58659 31.332L8.76337 31.1552ZM6.84471 29.2366L7.02149 29.0598L7.02149 29.0598L6.84471 29.2366ZM6.71101 26.5559L6.9045 26.7142L6.9045 26.7142L6.71101 26.5559ZM7.40158 25.7118L7.59507 25.8701L7.59507 25.8701L7.40158 25.7118ZM8.73196 23.2531L8.50099 23.3488L8.50099 23.3488L8.73196 23.2531ZM6.05267 22.4553L6.07755 22.2065L6.07755 22.2065L6.05267 22.4553ZM4.96762 22.3468L4.9925 22.098L4.98009 22.0968H4.96762V22.3468ZM4.9676 22.3468L4.94272 22.5955L4.95513 22.5968H4.9676V22.3468ZM3.42517 21.9327L3.61054 21.765L3.61054 21.765L3.42517 21.9327ZM3.42517 16.0673L3.23981 15.8996L3.23981 15.8996L3.42517 16.0673ZM4.96762 15.6533L4.94274 15.4045L4.94274 15.4045L4.96762 15.6533ZM6.05327 15.5447L6.07814 15.7934L6.07814 15.7934L6.05327 15.5447ZM8.73256 14.7468L8.96353 14.8425L8.96353 14.8425L8.73256 14.7468ZM7.40218 12.2881L7.20869 12.4464L7.20869 12.4464L7.40218 12.2881ZM6.71108 11.4435L6.51759 11.6018L6.51759 11.6018L6.71108 11.4435ZM6.84478 8.76278L7.02156 8.93956L7.02156 8.93956L6.84478 8.76278ZM8.76344 6.84413L8.94021 7.02091L8.94021 7.02091L8.76344 6.84413ZM11.4441 6.71043L11.2858 6.90392L11.2858 6.90392L11.4441 6.71043ZM12.2882 7.40103L12.4465 7.20754L12.4465 7.20754L12.2882 7.40103ZM15.5447 6.05212L15.296 6.02725L15.296 6.02725L15.5447 6.05212ZM15.6532 4.96768L15.4044 4.9428L15.4044 4.9428L15.6532 4.96768ZM16.0673 3.42523L15.8995 3.23987L15.8995 3.23987L16.0673 3.42523ZM21.9326 3.42523L21.7649 3.6106L21.7649 3.6106L21.9326 3.42523ZM22.5967 4.96768V4.96766H22.0967V4.96768H22.5967ZM22.704 6.02787L22.5955 4.9428L22.098 4.99256L22.2065 6.07762L22.704 6.02787ZM23.3487 8.50107C23.1849 8.4332 23.0548 8.27253 22.9506 7.85811C22.8462 7.44333 22.7865 6.85309 22.704 6.02787L22.2065 6.07762C22.2873 6.88594 22.3501 7.52085 22.4657 7.98009C22.5813 8.43968 22.7684 8.80188 23.1574 8.96301L23.3487 8.50107ZM25.5535 7.20816C24.9116 7.73333 24.452 8.10848 24.085 8.32799C23.7182 8.54731 23.5126 8.56893 23.3487 8.50107L23.1574 8.96301C23.5464 9.12413 23.9348 9.00034 24.3416 8.75712C24.748 8.51408 25.2414 8.10955 25.8701 7.59514L25.5535 7.20816ZM26.3974 6.51766L25.5535 7.20816L25.8701 7.59514L26.714 6.90464L26.3974 6.51766ZM27.9517 5.66358C27.6887 5.65046 27.458 5.74055 27.2205 5.88861C26.9892 6.03288 26.7251 6.24953 26.3974 6.51766L26.714 6.90464C27.0521 6.62805 27.2874 6.43616 27.4851 6.31288C27.6767 6.19338 27.8049 6.15688 27.9268 6.16296L27.9517 5.66358ZM29.4132 6.66807C29.1138 6.36867 28.8726 6.12682 28.6568 5.96024C28.4352 5.78929 28.2147 5.6767 27.9517 5.66358L27.9268 6.16296C28.0486 6.16904 28.1725 6.2181 28.3513 6.35608C28.5358 6.49842 28.7508 6.71277 29.0597 7.02162L29.4132 6.66807ZM31.3319 8.58672L29.4132 6.66807L29.0597 7.02162L30.9783 8.94027L31.3319 8.58672ZM32.3363 10.0483C32.3232 9.78526 32.2106 9.56468 32.0397 9.34316C31.8731 9.12728 31.6313 8.88612 31.3319 8.58672L30.9783 8.94027C31.2872 9.24913 31.5015 9.46416 31.6438 9.64862C31.7818 9.82743 31.8309 9.95133 31.837 10.0732L32.3363 10.0483ZM31.4823 11.6025C31.7504 11.2748 31.967 11.0108 32.1113 10.7794C32.2594 10.5419 32.3495 10.3113 32.3363 10.0483L31.837 10.0732C31.843 10.195 31.8065 10.3232 31.687 10.5148C31.5638 10.7125 31.3719 10.9478 31.0953 11.2859L31.4823 11.6025ZM30.7917 12.4465L31.4823 11.6025L31.0953 11.2859L30.4047 12.1299L30.7917 12.4465ZM29.4988 14.6512C29.431 14.4874 29.4526 14.2818 29.6719 13.915C29.8914 13.5479 30.2666 13.0884 30.7917 12.4465L30.4047 12.1299C29.8903 12.7586 29.4858 13.252 29.2428 13.6584C28.9995 14.0651 28.8758 14.4536 29.0369 14.8426L29.4988 14.6512ZM31.972 15.296C31.1468 15.2135 30.5566 15.1538 30.1418 15.0494C29.7274 14.9452 29.5667 14.8151 29.4988 14.6512L29.0369 14.8426C29.198 15.2315 29.5602 15.4187 30.0198 15.5343C30.479 15.6498 31.1139 15.7127 31.9223 15.7935L31.972 15.296ZM33.0572 15.4045L31.972 15.296L31.9223 15.7935L33.0074 15.902L33.0572 15.4045ZM34.7601 15.8996C34.5834 15.7043 34.3566 15.6049 34.084 15.5417C33.8184 15.4801 33.4785 15.4466 33.0572 15.4045L33.0074 15.902C33.442 15.9455 33.7441 15.9762 33.9711 16.0288C34.1911 16.0798 34.3075 16.1446 34.3894 16.2351L34.7601 15.8996ZM35.0833 17.6433C35.0833 17.2199 35.0838 16.8784 35.0489 16.6079C35.0132 16.3304 34.9368 16.0948 34.7601 15.8996L34.3894 16.2351C34.4712 16.3255 34.5242 16.4478 34.553 16.6718C34.5828 16.9029 34.5833 17.2065 34.5833 17.6433H35.0833ZM35.0833 20.3567V17.6433H34.5833V20.3567H35.0833ZM34.7601 22.1005C34.9368 21.9052 35.0132 21.6696 35.0489 21.3921C35.0838 21.1217 35.0833 20.7801 35.0833 20.3567H34.5833C34.5833 20.7935 34.5828 21.0971 34.553 21.3282C34.5242 21.5522 34.4712 21.6745 34.3894 21.765L34.7601 22.1005ZM33.0572 22.5955C33.4785 22.5534 33.8184 22.5199 34.084 22.4583C34.3566 22.3951 34.5834 22.2957 34.7601 22.1005L34.3894 21.765C34.3075 21.8554 34.1911 21.9202 33.9711 21.9712C33.7441 22.0239 33.4421 22.0546 33.0074 22.098L33.0572 22.5955ZM33.0323 22.5968H33.0323V22.0968H33.0323V22.5968ZM31.9726 22.704L33.0572 22.5955L33.0074 22.098L31.9229 22.2065L31.9726 22.704ZM29.4994 23.3488C29.5673 23.1849 29.728 23.0548 30.1424 22.9506C30.5572 22.8462 31.1474 22.7865 31.9726 22.704L31.9229 22.2065C31.1145 22.2873 30.4796 22.3501 30.0204 22.4657C29.5608 22.5813 29.1986 22.7684 29.0375 23.1574L29.4994 23.3488ZM30.7923 25.5535C30.2672 24.9116 29.892 24.452 29.6725 24.085C29.4532 23.7182 29.4316 23.5126 29.4994 23.3488L29.0375 23.1574C28.8764 23.5464 29.0001 23.9348 29.2434 24.3416C29.4864 24.748 29.8909 25.2414 30.4053 25.8701L30.7923 25.5535ZM31.4823 26.3968L30.7923 25.5535L30.4053 25.8701L31.0954 26.7135L31.4823 26.3968ZM32.3364 27.9511C32.3495 27.6881 32.2594 27.4574 32.1114 27.22C31.9671 26.9886 31.7505 26.7245 31.4823 26.3968L31.0954 26.7135C31.3719 27.0515 31.5638 27.2868 31.6871 27.4845C31.8066 27.6762 31.8431 27.8043 31.837 27.9262L32.3364 27.9511ZM31.3319 29.4126C31.6313 29.1132 31.8732 28.8721 32.0398 28.6562C32.2107 28.4347 32.3233 28.2141 32.3364 27.9511L31.837 27.9262C31.831 28.048 31.7819 28.1719 31.6439 28.3507C31.5016 28.5352 31.2872 28.7502 30.9784 29.0591L31.3319 29.4126ZM29.4133 31.3313L31.3319 29.4126L30.9784 29.0591L29.0597 30.9777L29.4133 31.3313ZM27.9517 32.3358C28.2147 32.3226 28.4353 32.21 28.6568 32.0391C28.8727 31.8725 29.1139 31.6307 29.4133 31.3313L29.0597 30.9777C28.7509 31.2866 28.5358 31.5009 28.3514 31.6433C28.1726 31.7812 28.0487 31.8303 27.9268 31.8364L27.9517 32.3358ZM26.3975 31.4817C26.7252 31.7498 26.9892 31.9665 27.2206 32.1107C27.4581 32.2588 27.6887 32.3489 27.9517 32.3358L27.9268 31.8364C27.805 31.8425 27.6768 31.806 27.4852 31.6865C27.2875 31.5632 27.0522 31.3713 26.7141 31.0947L26.3975 31.4817ZM25.5535 30.7912L26.3975 31.4817L26.7141 31.0947L25.8702 30.4042L25.5535 30.7912ZM23.3488 29.4983C23.5127 29.4304 23.7183 29.452 24.085 29.6713C24.4521 29.8909 24.9117 30.266 25.5535 30.7912L25.8702 30.4042C25.2414 29.8898 24.7481 29.4853 24.3416 29.2422C23.9349 28.999 23.5465 28.8752 23.1575 29.0363L23.3488 29.4983ZM22.7041 31.9715C22.7866 31.1462 22.8463 30.556 22.9506 30.1412C23.0549 29.7268 23.185 29.5661 23.3488 29.4983L23.1575 29.0363C22.7685 29.1975 22.5814 29.5597 22.4657 30.0192C22.3502 30.4785 22.2874 31.1134 22.2065 31.9217L22.7041 31.9715ZM22.5955 33.0572L22.7041 31.9715L22.2065 31.9217L22.098 33.0075L22.5955 33.0572ZM22.5967 33.0324V33.0324H22.0967V33.0324H22.5967ZM22.1004 34.7602C22.2956 34.5835 22.3951 34.3567 22.4583 34.0841C22.5199 33.8184 22.5534 33.4786 22.5955 33.0573L22.098 33.0075C22.0545 33.4421 22.0238 33.7442 21.9712 33.9711C21.9202 34.1912 21.8553 34.3076 21.7649 34.3894L22.1004 34.7602ZM20.3567 35.0834C20.7801 35.0834 21.1216 35.0838 21.392 35.049C21.6696 35.0132 21.9051 34.9369 22.1004 34.7602L21.7649 34.3894C21.6744 34.4713 21.5521 34.5242 21.3281 34.5531C21.0971 34.5829 20.7934 34.5834 20.3567 34.5834V35.0834ZM17.6433 35.0834H20.3567V34.5834H17.6433V35.0834ZM15.8995 34.7602C16.0948 34.9369 16.3304 35.0132 16.6079 35.049C16.8783 35.0838 17.2199 35.0834 17.6433 35.0834V34.5834C17.2065 34.5834 16.9029 34.5829 16.6718 34.5531C16.4478 34.5242 16.3255 34.4713 16.235 34.3894L15.8995 34.7602ZM15.4044 33.0572C15.4466 33.4785 15.4801 33.8184 15.5417 34.0841C15.6049 34.3567 15.7043 34.5835 15.8995 34.7602L16.235 34.3894C16.1446 34.3076 16.0798 34.1911 16.0287 33.9711C15.9761 33.7442 15.9454 33.4421 15.902 33.0075L15.4044 33.0572ZM15.2959 31.9721L15.4044 33.0572L15.902 33.0075L15.7934 31.9223L15.2959 31.9721ZM14.6512 29.4989C14.815 29.5668 14.9451 29.7274 15.0494 30.1419C15.1537 30.5566 15.2134 31.1469 15.2959 31.9721L15.7934 31.9223C15.7126 31.114 15.6498 30.4791 15.5342 30.0199C15.4186 29.5603 15.2315 29.1981 14.8425 29.037L14.6512 29.4989ZM12.4464 30.7918C13.0883 30.2666 13.5479 29.8915 13.915 29.672C14.2817 29.4527 14.4873 29.431 14.6512 29.4989L14.8425 29.037C14.4535 28.8758 14.0651 28.9996 13.6583 29.2428C13.2519 29.4859 12.7585 29.8904 12.1298 30.4048L12.4464 30.7918ZM11.6024 31.4824L12.4464 30.7918L12.1298 30.4048L11.2857 31.0954L11.6024 31.4824ZM10.0481 32.3365C10.3111 32.3496 10.5418 32.2595 10.7793 32.1115C11.0106 31.9672 11.2747 31.7505 11.6024 31.4824L11.2857 31.0954C10.9477 31.372 10.7124 31.5639 10.5147 31.6872C10.323 31.8067 10.1949 31.8432 10.073 31.8371L10.0481 32.3365ZM8.58659 31.332C8.88599 31.6314 9.12715 31.8732 9.34303 32.0398C9.56455 32.2108 9.78513 32.3234 10.0481 32.3365L10.073 31.8371C9.9512 31.831 9.82729 31.782 9.64849 31.644C9.46403 31.5016 9.249 31.2873 8.94014 30.9784L8.58659 31.332ZM6.66794 29.4133L8.58659 31.332L8.94014 30.9784L7.02149 29.0598L6.66794 29.4133ZM5.66345 27.9518C5.67657 28.2148 5.78916 28.4354 5.96011 28.6569C6.12669 28.8728 6.36854 29.1139 6.66794 29.4133L7.02149 29.0598C6.71264 28.7509 6.49829 28.5359 6.35595 28.3514C6.21797 28.1726 6.16891 28.0487 6.16283 27.9269L5.66345 27.9518ZM6.51752 26.3976C6.2494 26.7253 6.03275 26.9893 5.88847 27.2207C5.74042 27.4581 5.65033 27.6888 5.66345 27.9518L6.16283 27.9269C6.15675 27.8051 6.19325 27.6769 6.31275 27.4852C6.43603 27.2875 6.62791 27.0522 6.9045 26.7142L6.51752 26.3976ZM7.20809 25.5535L6.51752 26.3976L6.9045 26.7142L7.59507 25.8701L7.20809 25.5535ZM8.50099 23.3488C8.56886 23.5126 8.54724 23.7183 8.32792 24.085C8.10841 24.4521 7.73326 24.9117 7.20809 25.5535L7.59507 25.8701C8.10948 25.2414 8.51401 24.7481 8.75705 24.3416C9.00027 23.9349 9.12405 23.5464 8.96293 23.1575L8.50099 23.3488ZM6.0278 22.704C6.85302 22.7866 7.44326 22.8463 7.85803 22.9506C8.27246 23.0549 8.43313 23.185 8.50099 23.3488L8.96293 23.1575C8.80181 22.7685 8.43961 22.5813 7.98002 22.4657C7.52078 22.3502 6.88587 22.2874 6.07755 22.2065L6.0278 22.704ZM4.94274 22.5955L6.0278 22.704L6.07755 22.2065L4.9925 22.098L4.94274 22.5955ZM4.9676 22.5968H4.96762V22.0968H4.9676V22.5968ZM3.23981 22.1005C3.4165 22.2957 3.64332 22.3951 3.9159 22.4583C4.18153 22.5199 4.52141 22.5534 4.94272 22.5955L4.99248 22.098C4.55787 22.0546 4.25581 22.0239 4.02884 21.9712C3.80883 21.9202 3.69239 21.8554 3.61054 21.765L3.23981 22.1005ZM2.91663 20.3567C2.91663 20.7801 2.91614 21.1217 2.951 21.3921C2.98676 21.6696 3.06311 21.9052 3.23981 22.1005L3.61054 21.765C3.52868 21.6745 3.47576 21.5522 3.44689 21.3282C3.41711 21.0971 3.41663 20.7935 3.41663 20.3567H2.91663ZM2.91663 17.6433V20.3567H3.41663V17.6433H2.91663ZM3.23981 15.8996C3.06311 16.0948 2.98676 16.3304 2.951 16.6079C2.91614 16.8784 2.91663 17.2199 2.91663 17.6433H3.41663C3.41663 17.2065 3.41711 16.9029 3.44689 16.6718C3.47576 16.4478 3.52868 16.3255 3.61054 16.2351L3.23981 15.8996ZM4.94274 15.4045C4.52143 15.4466 4.18154 15.4801 3.91591 15.5417C3.64332 15.6049 3.41651 15.7043 3.23981 15.8996L3.61054 16.2351C3.69239 16.1446 3.80883 16.0798 4.02885 16.0288C4.25582 15.9762 4.55788 15.9455 4.99249 15.902L4.94274 15.4045ZM6.02839 15.2959L4.94274 15.4045L4.99249 15.902L6.07814 15.7934L6.02839 15.2959ZM8.50159 14.6512C8.43373 14.815 8.27305 14.9451 7.85863 15.0494C7.44385 15.1537 6.85361 15.2134 6.02839 15.2959L6.07814 15.7934C6.88646 15.7126 7.52138 15.6498 7.98061 15.5343C8.44021 15.4186 8.80241 15.2315 8.96353 14.8425L8.50159 14.6512ZM7.20869 12.4464C7.73385 13.0883 8.10901 13.5479 8.32851 13.915C8.54783 14.2817 8.56945 14.4873 8.50159 14.6512L8.96353 14.8425C9.12465 14.4535 9.00086 14.0651 8.75764 13.6584C8.51461 13.2519 8.11008 12.7586 7.59567 12.1298L7.20869 12.4464ZM6.51759 11.6018L7.20869 12.4464L7.59567 12.1298L6.90457 11.2852L6.51759 11.6018ZM5.66352 10.0475C5.6504 10.3105 5.74049 10.5412 5.88854 10.7787C6.03282 11.01 6.24947 11.2741 6.51759 11.6018L6.90457 11.2852C6.62799 10.9471 6.4361 10.7118 6.31282 10.5141C6.19332 10.3225 6.15682 10.1943 6.1629 10.0724L5.66352 10.0475ZM6.66801 8.586C6.36861 8.8854 6.12676 9.12656 5.96018 9.34244C5.78923 9.56397 5.67664 9.78454 5.66352 10.0475L6.1629 10.0724C6.16898 9.95062 6.21804 9.82671 6.35602 9.6479C6.49836 9.46344 6.71271 9.24841 7.02156 8.93956L6.66801 8.586ZM8.58666 6.66735L6.66801 8.586L7.02156 8.93956L8.94021 7.02091L8.58666 6.66735ZM10.0482 5.66286C9.7852 5.67598 9.56462 5.78857 9.3431 5.95952C9.12722 6.12611 8.88606 6.36795 8.58666 6.66735L8.94021 7.02091C9.24907 6.71205 9.4641 6.49771 9.64856 6.35537C9.82736 6.21739 9.95127 6.16832 10.0731 6.16224L10.0482 5.66286ZM11.6024 6.51694C11.2747 6.24881 11.0107 6.03217 10.7793 5.88789C10.5419 5.73983 10.3112 5.64975 10.0482 5.66286L10.0731 6.16224C10.1949 6.15617 10.3231 6.19266 10.5148 6.31216C10.7125 6.43544 10.9478 6.62733 11.2858 6.90392L11.6024 6.51694ZM12.4465 7.20754L11.6024 6.51694L11.2858 6.90392L12.1299 7.59452L12.4465 7.20754ZM14.6512 8.50044C14.4874 8.56831 14.2818 8.54669 13.915 8.32737C13.5479 8.10786 13.0884 7.73271 12.4465 7.20754L12.1299 7.59452C12.7586 8.10893 13.252 8.51346 13.6584 8.7565C14.0651 8.99972 14.4536 9.1235 14.8426 8.96238L14.6512 8.50044ZM15.296 6.02725C15.2135 6.85247 15.1538 7.44271 15.0494 7.85748C14.9452 8.27191 14.8151 8.43258 14.6512 8.50044L14.8426 8.96238C15.2316 8.80126 15.4187 8.43906 15.5343 7.97947C15.6499 7.52023 15.7127 6.88532 15.7935 6.077L15.296 6.02725ZM15.4044 4.9428L15.296 6.02725L15.7935 6.077L15.902 4.99256L15.4044 4.9428ZM15.8995 3.23987C15.7043 3.41657 15.6049 3.64338 15.5417 3.91597C15.4801 4.1816 15.4466 4.52149 15.4044 4.9428L15.902 4.99256C15.9454 4.55794 15.9761 4.25588 16.0287 4.02891C16.0798 3.80889 16.1446 3.69245 16.235 3.6106L15.8995 3.23987ZM17.6433 2.91669C17.2199 2.91669 16.8783 2.9162 16.6079 2.95106C16.3304 2.98682 16.0948 3.06318 15.8995 3.23987L16.235 3.6106C16.3255 3.52875 16.4478 3.47582 16.6718 3.44695C16.9029 3.41717 17.2065 3.41669 17.6433 3.41669V2.91669ZM20.3566 2.91669H17.6433V3.41669H20.3566V2.91669ZM22.1004 3.23987C21.9051 3.06318 21.6696 2.98682 21.392 2.95106C21.1216 2.9162 20.7801 2.91669 20.3566 2.91669V3.41669C20.7934 3.41669 21.0971 3.41717 21.3281 3.44695C21.5521 3.47582 21.6744 3.52875 21.7649 3.6106L22.1004 3.23987ZM22.5955 4.94278C22.5534 4.52147 22.5199 4.18159 22.4583 3.91596C22.3951 3.64338 22.2956 3.41657 22.1004 3.23987L21.7649 3.6106C21.8553 3.69245 21.9202 3.80889 21.9712 4.0289C22.0238 4.25587 22.0545 4.55793 22.098 4.99254L22.5955 4.94278ZM25.0833 19C25.0833 22.3598 22.3597 25.0834 19 25.0834V25.5834C22.6358 25.5834 25.5833 22.6359 25.5833 19H25.0833ZM19 12.9167C22.3597 12.9167 25.0833 15.6403 25.0833 19H25.5833C25.5833 15.3641 22.6358 12.4167 19 12.4167V12.9167ZM12.9166 19C12.9166 15.6403 15.6402 12.9167 19 12.9167V12.4167C15.3641 12.4167 12.4166 15.3641 12.4166 19H12.9166ZM19 25.0834C15.6402 25.0834 12.9166 22.3598 12.9166 19H12.4166C12.4166 22.6359 15.3641 25.5834 19 25.5834V25.0834Z" fill="white"/>
</svg>
