<svg width="34" height="34" viewBox="0 0 34 34" fill="none" xmlns="http://www.w3.org/2000/svg">
<path d="M23.6042 18.5C24.4096 18.5 25.0625 17.8471 25.0625 17.0417C25.0625 16.2363 24.4096 15.5833 23.6042 15.5833H18.5V7.5625C18.5 6.75709 17.8471 6.10417 17.0417 6.10417C16.2363 6.10417 15.5833 6.75709 15.5833 7.5625V17.0417C15.5833 17.8471 16.2363 18.5 17.0417 18.5H23.6042Z" fill="white"/>
<path fill-rule="evenodd" clip-rule="evenodd" d="M17.0417 1C8.1821 1 1 8.1821 1 17.0417C1 25.9012 8.1821 33.0833 17.0417 33.0833C25.9012 33.0833 33.0833 25.9012 33.0833 17.0417C33.0833 8.1821 25.9012 1 17.0417 1ZM3.91667 17.0417C3.91667 9.79293 9.79293 3.91667 17.0417 3.91667C24.2904 3.91667 30.1667 9.79293 30.1667 17.0417C30.1667 24.2904 24.2904 30.1667 17.0417 30.1667C9.79293 30.1667 3.91667 24.2904 3.91667 17.0417Z" fill="white"/>
<path d="M23.6042 18.5C24.4096 18.5 25.0625 17.8471 25.0625 17.0417C25.0625 16.2363 24.4096 15.5833 23.6042 15.5833H18.5V7.5625C18.5 6.75709 17.8471 6.10417 17.0417 6.10417C16.2363 6.10417 15.5833 6.75709 15.5833 7.5625V17.0417C15.5833 17.8471 16.2363 18.5 17.0417 18.5H23.6042Z" stroke="#341C4F" stroke-linecap="round" stroke-linejoin="round"/>
<path fill-rule="evenodd" clip-rule="evenodd" d="M17.0417 1C8.1821 1 1 8.1821 1 17.0417C1 25.9012 8.1821 33.0833 17.0417 33.0833C25.9012 33.0833 33.0833 25.9012 33.0833 17.0417C33.0833 8.1821 25.9012 1 17.0417 1ZM3.91667 17.0417C3.91667 9.79293 9.79293 3.91667 17.0417 3.91667C24.2904 3.91667 30.1667 9.79293 30.1667 17.0417C30.1667 24.2904 24.2904 30.1667 17.0417 30.1667C9.79293 30.1667 3.91667 24.2904 3.91667 17.0417Z" stroke="#341C4F" stroke-linecap="round" stroke-linejoin="round"/>
</svg>
