<svg width="34" height="34" viewBox="0 0 34 34" fill="none" xmlns="http://www.w3.org/2000/svg">
<g clip-path="url(#clip0_409_878)">
<path fill-rule="evenodd" clip-rule="evenodd" d="M5.71317 11.5612C5.9957 10.9317 6.88941 10.9317 7.17193 11.5612L8.55193 14.6359L11.9026 14.9982C12.5886 15.0724 12.8648 15.9224 12.3534 16.3856L9.8556 18.6482L10.5464 21.9468C10.6879 22.6222 9.96484 23.1475 9.36628 22.8043L6.44255 21.1279L3.51883 22.8043C2.92026 23.1475 2.19723 22.6222 2.33867 21.9468L3.02951 18.6482L0.531704 16.3856C0.0203319 15.9224 0.296505 15.0724 0.982486 14.9982L4.33317 14.6359L5.71317 11.5612ZM6.44255 12.5607L5.24904 15.2199C5.13279 15.479 4.88788 15.6569 4.60561 15.6874L1.70772 16.0008L3.86798 17.9576C4.0784 18.1482 4.17195 18.4361 4.11375 18.714L3.51626 21.5669L6.04489 20.1171C6.29119 19.9758 6.59391 19.9758 6.84022 20.1171L9.36884 21.5669L8.77136 18.714C8.71316 18.4361 8.8067 18.1482 9.01713 17.9576L11.1774 16.0008L8.2795 15.6874C7.99723 15.6569 7.75232 15.479 7.63606 15.2199L6.44255 12.5607Z" fill="#7EC8BA"/>
</g>
<g clip-path="url(#clip1_409_878)">
<path fill-rule="evenodd" clip-rule="evenodd" d="M16.2649 22.1129C16.5475 21.4834 17.4412 21.4834 17.7237 22.1129L19.1037 25.1877L22.4544 25.55C23.1404 25.6241 23.4165 26.4741 22.9052 26.9373L20.4074 29.1999L21.0982 32.4986C21.2396 33.1739 20.5166 33.6992 19.918 33.356L16.9943 31.6797L14.0706 33.356C13.472 33.6992 12.749 33.1739 12.8904 32.4986L13.5813 29.1999L11.0835 26.9373C10.5721 26.4741 10.8483 25.6241 11.5342 25.55L14.8849 25.1877L16.2649 22.1129ZM16.9943 23.1125L15.8008 25.7717C15.6845 26.0307 15.4396 26.2087 15.1574 26.2392L12.2595 26.5525L14.4197 28.5094C14.6302 28.7 14.7237 28.9879 14.6655 29.2658L14.068 32.1187L16.5966 30.6688C16.8429 30.5276 17.1457 30.5276 17.392 30.6688L19.9206 32.1187L19.3231 29.2658C19.2649 28.9879 19.3585 28.7 19.5689 28.5094L21.7291 26.5525L18.8313 26.2392C18.549 26.2087 18.3041 26.0307 18.1878 25.7717L16.9943 23.1125Z" fill="#7EC8BA"/>
</g>
<g clip-path="url(#clip2_409_878)">
<path fill-rule="evenodd" clip-rule="evenodd" d="M16.2649 1.00947C16.5475 0.379981 17.4412 0.379983 17.7237 1.00947L19.1037 4.0842L22.4544 4.44651C23.1404 4.52069 23.4165 5.37066 22.9052 5.83388L20.4074 8.09648L21.0982 11.3951C21.2396 12.0705 20.5166 12.5958 19.918 12.2526L16.9943 10.5762L14.0706 12.2526C13.472 12.5958 12.749 12.0705 12.8904 11.3951L13.5813 8.09648L11.0835 5.83388C10.5721 5.37066 10.8483 4.52069 11.5342 4.44651L14.8849 4.0842L16.2649 1.00947ZM16.9943 2.00901L15.8008 4.66824C15.6845 4.92726 15.4396 5.1052 15.1574 5.13572L12.2595 5.44907L14.4197 7.40591C14.6302 7.59652 14.7237 7.88443 14.6655 8.16231L14.068 11.0152L16.5966 9.56537C16.8429 9.42415 17.1457 9.42415 17.392 9.56537L19.9206 11.0152L19.3231 8.16231C19.2649 7.88443 19.3585 7.59652 19.5689 7.40591L21.7291 5.44907L18.8313 5.13572C18.549 5.1052 18.3041 4.92726 18.1878 4.66824L16.9943 2.00901Z" fill="#7EC8BA"/>
</g>
<g clip-path="url(#clip3_409_878)">
<path fill-rule="evenodd" clip-rule="evenodd" d="M26.8166 11.5612C27.0991 10.9317 27.9928 10.9317 28.2753 11.5612L29.6553 14.6359L33.006 14.9982C33.692 15.0724 33.9682 15.9224 33.4568 16.3856L30.959 18.6482L31.6498 21.9468C31.7913 22.6222 31.0682 23.1475 30.4697 22.8043L27.5459 21.1279L24.6222 22.8043C24.0236 23.1475 23.3006 22.6222 23.4421 21.9468L24.1329 18.6482L21.6351 16.3856C21.1237 15.9224 21.3999 15.0724 22.0859 14.9982L25.4366 14.6359L26.8166 11.5612ZM27.5459 12.5607L26.3524 15.2199C26.2362 15.479 25.9913 15.6569 25.709 15.6874L22.8111 16.0008L24.9714 17.9576C25.1818 18.1482 25.2753 18.4361 25.2171 18.714L24.6197 21.5669L27.1483 20.1171C27.3946 19.9758 27.6973 19.9758 27.9436 20.1171L30.4722 21.5669L29.8747 18.714C29.8166 18.4361 29.9101 18.1482 30.1205 17.9576L32.2808 16.0008L29.3829 15.6874C29.1006 15.6569 28.8557 15.479 28.7395 15.2199L27.5459 12.5607Z" fill="#7EC8BA"/>
</g>
<defs>
<clipPath id="clip0_409_878">
<rect width="12.8966" height="12.8966" fill="white" transform="translate(0 10.5517)"/>
</clipPath>
<clipPath id="clip1_409_878">
<rect width="12.8966" height="12.8966" fill="white" transform="translate(10.5518 21.1035)"/>
</clipPath>
<clipPath id="clip2_409_878">
<rect width="12.8966" height="12.8966" fill="white" transform="translate(10.5518)"/>
</clipPath>
<clipPath id="clip3_409_878">
<rect width="12.8966" height="12.8966" fill="white" transform="translate(21.1034 10.5517)"/>
</clipPath>
</defs>
</svg>
