<svg width="34" height="34" viewBox="0 0 34 34" fill="none" xmlns="http://www.w3.org/2000/svg">
<g clip-path="url(#clip0_118_840)">
<path fill-rule="evenodd" clip-rule="evenodd" d="M5.71323 11.5612C5.99576 10.9317 6.88947 10.9317 7.17199 11.5612L8.55199 14.636L11.9027 14.9983C12.5887 15.0724 12.8648 15.9224 12.3535 16.3856L9.85566 18.6482L10.5465 21.9469C10.6879 22.6222 9.9649 23.1475 9.36634 22.8043L6.44261 21.128L3.51889 22.8043C2.92032 23.1475 2.19729 22.6222 2.33873 21.9469L3.02957 18.6482L0.531765 16.3856C0.020393 15.9224 0.296566 15.0724 0.982547 14.9983L4.33323 14.636L5.71323 11.5612ZM6.44261 12.5608L5.2491 15.22C5.13285 15.479 4.88794 15.657 4.60567 15.6875L1.70778 16.0008L3.86804 17.9577C4.07846 18.1483 4.17201 18.4362 4.11381 18.7141L3.51632 21.567L6.04495 20.1171C6.29125 19.9759 6.59397 19.9759 6.84028 20.1171L9.3689 21.567L8.77142 18.7141C8.71322 18.4362 8.80676 18.1483 9.01719 17.9577L11.1774 16.0008L8.27956 15.6875C7.99729 15.657 7.75238 15.479 7.63612 15.22L6.44261 12.5608Z" fill="#7EC8BA"/>
</g>
<g clip-path="url(#clip1_118_840)">
<path fill-rule="evenodd" clip-rule="evenodd" d="M16.2649 22.1129C16.5475 21.4834 17.4412 21.4834 17.7237 22.1129L19.1037 25.1876L22.4544 25.5499C23.1404 25.6241 23.4165 26.4741 22.9052 26.9373L20.4074 29.1999L21.0982 32.4985C21.2396 33.1739 20.5166 33.6992 19.918 33.356L16.9943 31.6796L14.0706 33.356C13.472 33.6992 12.749 33.1739 12.8904 32.4985L13.5813 29.1999L11.0835 26.9373C10.5721 26.474 10.8483 25.6241 11.5342 25.5499L14.8849 25.1876L16.2649 22.1129ZM16.9943 23.1124L15.8008 25.7716C15.6845 26.0307 15.4396 26.2086 15.1574 26.2391L12.2595 26.5525L14.4197 28.5093C14.6302 28.6999 14.7237 28.9878 14.6655 29.2657L14.068 32.1186L16.5966 30.6688C16.8429 30.5275 17.1457 30.5275 17.392 30.6688L19.9206 32.1186L19.3231 29.2657C19.2649 28.9878 19.3585 28.6999 19.5689 28.5093L21.7291 26.5525L18.8313 26.2391C18.549 26.2086 18.3041 26.0307 18.1878 25.7716L16.9943 23.1124Z" fill="#7EC8BA"/>
</g>
<g clip-path="url(#clip2_118_840)">
<path fill-rule="evenodd" clip-rule="evenodd" d="M16.2649 1.00947C16.5475 0.379981 17.4412 0.379983 17.7237 1.00947L19.1037 4.0842L22.4544 4.44651C23.1404 4.52069 23.4165 5.37066 22.9052 5.83388L20.4074 8.09648L21.0982 11.3951C21.2396 12.0705 20.5166 12.5958 19.918 12.2526L16.9943 10.5762L14.0706 12.2526C13.472 12.5958 12.749 12.0705 12.8904 11.3951L13.5813 8.09648L11.0835 5.83388C10.5721 5.37066 10.8483 4.52069 11.5342 4.44651L14.8849 4.0842L16.2649 1.00947ZM16.9943 2.00901L15.8008 4.66824C15.6845 4.92726 15.4396 5.1052 15.1574 5.13572L12.2595 5.44907L14.4197 7.40591C14.6302 7.59652 14.7237 7.88443 14.6655 8.16231L14.068 11.0152L16.5966 9.56537C16.8429 9.42415 17.1457 9.42415 17.392 9.56537L19.9206 11.0152L19.3231 8.16231C19.2649 7.88443 19.3585 7.59652 19.5689 7.40591L21.7291 5.44907L18.8313 5.13572C18.549 5.1052 18.3041 4.92726 18.1878 4.66824L16.9943 2.00901Z" fill="#7EC8BA"/>
</g>
<g clip-path="url(#clip3_118_840)">
<path fill-rule="evenodd" clip-rule="evenodd" d="M26.8167 11.5612C27.0992 10.9317 27.9929 10.9317 28.2754 11.5612L29.6554 14.636L33.0061 14.9983C33.6921 15.0724 33.9683 15.9224 33.4569 16.3856L30.9591 18.6482L31.65 21.9469C31.7914 22.6222 31.0684 23.1475 30.4698 22.8043L27.5461 21.128L24.6223 22.8043C24.0238 23.1475 23.3007 22.6222 23.4422 21.9469L24.133 18.6482L21.6352 16.3856C21.1238 15.9224 21.4 15.0724 22.086 14.9983L25.4367 14.636L26.8167 11.5612ZM27.5461 12.5608L26.3526 15.22C26.2363 15.479 25.9914 15.657 25.7091 15.6875L22.8112 16.0008L24.9715 17.9577C25.1819 18.1483 25.2755 18.4362 25.2173 18.7141L24.6198 21.567L27.1484 20.1171C27.3947 19.9759 27.6974 19.9759 27.9437 20.1171L30.4724 21.567L29.8749 18.7141C29.8167 18.4362 29.9102 18.1483 30.1206 17.9577L32.2809 16.0008L29.383 15.6875C29.1007 15.657 28.8558 15.479 28.7396 15.22L27.5461 12.5608Z" fill="#7EC8BA"/>
</g>
<defs>
<clipPath id="clip0_118_840">
<rect width="12.8966" height="12.8966" fill="white" transform="translate(0 10.5518)"/>
</clipPath>
<clipPath id="clip1_118_840">
<rect width="12.8966" height="12.8966" fill="white" transform="translate(10.5517 21.1034)"/>
</clipPath>
<clipPath id="clip2_118_840">
<rect width="12.8966" height="12.8966" fill="white" transform="translate(10.5517)"/>
</clipPath>
<clipPath id="clip3_118_840">
<rect width="12.8966" height="12.8966" fill="white" transform="translate(21.1035 10.5518)"/>
</clipPath>
</defs>
</svg>
